<svg t="1745561457263" class="icon" viewBox="0 0 1024 1024" version="1.1" xmlns="http://www.w3.org/2000/svg" p-id="18639" width="1em" height="1em"><path d="M707.356444 67.242667a23.409778 23.409778 0 1 0 0 46.819555 23.409778 23.409778 0 1 0 0-46.819555z m0 36.778666a13.368889 13.368889 0 0 1 0-26.766222 13.368889 13.368889 0 0 1 0 26.766222z" fill="#00DDD3" p-id="18640"></path><path d="M139.861333 567.153778a27.790222 27.790222 0 0 0 0 55.608889 27.790222 27.790222 0 0 0 0-55.608889z m0 43.662222a15.928889 15.928889 0 0 1 0-31.772444 15.900444 15.900444 0 1 1 0 31.772444z" fill="#7F9CFF" p-id="18641"></path><path d="M60.700444 391.196444h-12.288v-18.716444a7.025778 7.025778 0 1 0-14.051555 0v18.716444H15.644444a7.025778 7.025778 0 1 0 0 14.051556h18.716445v18.716444a7.025778 7.025778 0 1 0 14.023111 0v-18.716444h12.316444a7.025778 7.025778 0 1 0 0-14.051556z" fill="#00DDD3" p-id="18642"></path><path d="M453.603556 116.394667h-12.259556v-18.716445a7.025778 7.025778 0 1 0-14.051556 0v18.716445h-18.716444a7.025778 7.025778 0 1 0-0.028444 14.051555h18.744888v18.716445a7.025778 7.025778 0 0 0 14.051556 0v-18.716445h12.288a7.025778 7.025778 0 1 0 0-14.051555z" fill="#FFA700" p-id="18643"></path><path d="M126.435556 324.437333a14.051556 14.051556 0 0 0 28.103111 0 14.051556 14.051556 0 0 0-28.103111 0z" fill="#FF7B23" p-id="18644"></path><path d="M876.117333 204.743111a14.051556 14.051556 0 1 0 28.103111 0 14.051556 14.051556 0 1 0-28.103111 0z" fill="#F91641" p-id="18645"></path><path d="M253.696 13.169778a4.693333 4.693333 0 0 0-4.693333 4.693333v18.716445a4.693333 4.693333 0 0 0 9.386666 0V17.863111a4.693333 4.693333 0 0 0-4.693333-4.693333zM232.903111 24.462222a4.693333 4.693333 0 0 0-6.627555 6.627556l13.255111 13.255111a4.693333 4.693333 0 0 0 6.627555-0.341333 4.721778 4.721778 0 0 0 0-6.286223L232.903111 24.462222z m10.069333 27.392a4.693333 4.693333 0 0 0-4.664888-4.693333h-18.744889a4.693333 4.693333 0 0 0 0 9.386667h18.744889c2.56 0 4.664889-2.104889 4.664888-4.693334z m-3.527111 7.537778l-13.255111 13.226667a4.693333 4.693333 0 0 0 6.627556 6.627555l13.226666-13.226666a4.693333 4.693333 0 0 0-6.599111-6.627556z m14.108445 3.157333a4.664889 4.664889 0 0 0-4.664889 4.664889v18.773334a4.693333 4.693333 0 0 0 9.386667 0v-18.773334a4.693333 4.693333 0 0 0-4.721778-4.664889z m14.165333-3.072a4.664889 4.664889 0 0 0-6.599111 6.599111l13.226667 13.255112a4.693333 4.693333 0 0 0 6.627555-6.627556l-13.255111-13.226667z m19.968-12.202666h-18.744889a4.693333 4.693333 0 0 0 0 9.386666h18.744889a4.693333 4.693333 0 0 0 0-9.386666z m-19.882667-2.844445l13.255112-13.255111a4.693333 4.693333 0 0 0-6.627556-6.599111l-13.226667 13.226667a4.693333 4.693333 0 1 0 6.599111 6.627555z" fill="#FFE855" p-id="18646"></path><path d="M774.172444 861.667556a23.751111 23.751111 0 0 1-23.665777 23.836444H312.945778a23.751111 23.751111 0 0 1-23.694222-23.808V476.188444a23.779556 23.779556 0 0 1 23.694222-23.836444h437.504a23.779556 23.779556 0 0 1 23.694222 23.836444v385.450667z" fill="#FFCA45" p-id="18647"></path><path d="M756.764444 437.816889h-113.294222v29.098667h65.763556a9.244444 9.244444 0 0 1 9.159111 9.272888v385.479112a9.244444 9.244444 0 0 1-9.159111 9.301333h-65.763556v29.098667h113.294222c21.077333 0 38.229333-17.237333 38.229334-38.4V476.188444c0-21.162667-17.152-38.4-38.229334-38.4z" fill="#FF7B23" p-id="18648"></path><path d="M750.478222 437.816889c21.077333 0 38.229333 17.208889 38.229334 38.4v146.887111c0 8.021333-6.513778 14.506667-14.506667 14.506667h-0.028445l-2.616888-0.199111a14.535111 14.535111 0 0 1-11.918223-14.336v-146.858667a9.244444 9.244444 0 0 0-9.159111-9.301333h-437.475555a9.244444 9.244444 0 0 0-9.159111 9.301333v385.450667l0.170666 1.877333c0.824889 4.209778 4.522667 7.395556 8.96 7.424h437.475556a9.244444 9.244444 0 0 0 9.187555-9.301333v-114.887112a14.535111 14.535111 0 0 1 29.098667 0.853334v114.062222c0 21.134222-17.152 38.4-38.257778 38.4h-437.475555a38.371556 38.371556 0 0 1-38.257778-38.4V476.188444c0-21.191111 17.152-38.4 38.229333-38.4z m23.239111 210.033778a14.535111 14.535111 0 0 1 14.990223 14.08v47.786666a14.535111 14.535111 0 0 1-29.070223 0v-46.876444a14.535111 14.535111 0 0 1 14.08-14.990222z" fill="#252525" p-id="18649"></path><path d="M846.933333 536.718222c0 13.368889-10.865778 24.234667-24.263111 24.234667H268.288a24.234667 24.234667 0 0 1-24.263111-24.234667v-145.464889c0-13.368889 10.865778-24.263111 24.263111-24.263111h554.382222c13.368889 0 24.263111 10.865778 24.263111 24.263111v145.464889z" fill="#FF617F" p-id="18650"></path><path d="M822.670222 381.553778h-13.738666c5.347556 0 9.671111 4.323556 9.671111 9.671111v145.464889c0 5.347556-4.352 9.699556-9.671111 9.699555h13.738666c5.347556 0 9.671111-4.352 9.671111-9.671111v-145.464889a9.699556 9.699556 0 0 0-9.671111-9.699555z" fill="#F91641" p-id="18651"></path><path d="M391.509333 712.817778a14.563556 14.563556 0 0 1-29.127111 0v-92.16a14.535111 14.535111 0 0 1 14.933334-14.222222 14.535111 14.535111 0 0 1 14.193777 14.222222v92.16z m-29.127111 44.828444a14.563556 14.563556 0 0 0 29.127111 0 14.563556 14.563556 0 0 0-29.127111 0z" fill="#FFFFFF" p-id="18652"></path><path d="M240.782222 352.455111h463.928889c6.883556 0.170667 12.572444 5.12 13.909333 11.662222l0.284445 2.56-0.199111 2.616889a14.563556 14.563556 0 0 1-11.406222 11.946667l-2.616889 0.312889h-158.435556v164.835555h276.423111a9.699556 9.699556 0 0 0 9.500445-7.736889l0.199111-1.962666v-145.464889a9.699556 9.699556 0 0 0-7.765334-9.472l-1.934222-0.199111H749.795556l-2.616889-0.227556a14.563556 14.563556 0 0 1 0-28.643555l2.616889-0.227556h72.846222c20.167111 0 36.721778 15.388444 38.627555 35.043556l0.199111 3.754666v145.436445a38.855111 38.855111 0 0 1-35.072 38.627555l-3.726222 0.170667h-276.423111v315.875556h-29.098667V575.488H240.810667A38.855111 38.855111 0 0 1 202.183111 540.444444l-0.170667-3.754666v-53.333334a14.563556 14.563556 0 0 1 28.899556-1.991111l0.199111 2.616889v52.707556a9.671111 9.671111 0 0 0 7.736889 9.500444l1.934222 0.199111h276.394667v-164.835555H240.782222a9.699556 9.699556 0 0 0-9.500444 7.736889l-0.199111 1.962666v52.707556l-0.227556 2.645333a14.563556 14.563556 0 0 1-11.690667 11.662222l-2.616888 0.284445-2.616889-0.284445a14.563556 14.563556 0 0 1-11.690667-11.662222l-0.227556-2.645333v-52.707556c0-20.167111 15.36-36.693333 35.043556-38.627555l3.726222-0.170667h463.928889z" fill="#252525" p-id="18653"></path><path d="M699.079111 245.105778c-9.301333-13.681778-24.718222-21.219556-43.406222-21.219556-25.685333 0-55.296 13.738667-79.246222 36.721778-11.832889 11.377778-35.271111 37.233778-48.782223 61.809778-10.922667-24.32-28.615111-49.436444-38.115555-61.155556-23.608889-29.184-55.409778-47.303111-83.000889-47.303111-15.303111 0-28.359111 5.632-37.745778 16.270222-9.272889 10.524444-13.226667 23.893333-11.377778 38.627556 3.242667 25.969778 24.462222 54.698667 56.803556 76.8 30.805333 21.105778 70.798222 36.408889 95.118222 36.408889 9.784889 0 17.123556-2.645333 21.930667-7.736889 5.233778 2.190222 11.832889 3.328 19.996444 3.328 25.031111 0 59.904-9.614222 88.832-24.519111 34.56-17.749333 59.022222-43.377778 65.422223-68.551111 3.640889-14.279111 1.422222-27.932444-6.428445-39.480889zM430.648889 321.706667c-24.775111-16.981333-42.211556-39.139556-44.373333-56.433778-0.796444-6.4 0.625778-11.576889 4.380444-15.786667 3.783111-4.323556 8.988444-6.4 15.900444-6.4 18.432 0 42.666667 14.648889 60.359112 36.465778 23.779556 29.411556 38.115556 60.188444 40.931555 73.386667-14.535111-0.654222-46.762667-10.410667-77.198222-31.232z m246.670222-44.288c-4.266667 16.696889-24.092444 36.266667-50.517333 49.863111-28.586667 14.705778-58.538667 21.276444-75.52 21.276444-1.536 0-2.816-0.056889-3.896889-0.113778 4.465778-12.714667 22.328889-41.045333 49.208889-66.844444 18.090667-17.351111 41.301333-28.586667 59.079111-28.586667 9.016889 0 15.502222 2.844444 19.342222 8.476445 3.128889 4.551111 3.868444 9.813333 2.275556 15.928889z" fill="#252525" p-id="18654"></path></svg>